<?xml version="1.0" standalone="no"?>
<!DOCTYPE svg PUBLIC "-//W3C//DTD SVG 1.1//EN" "http://www.w3.org/Graphics/SVG/1.1/DTD/svg11.dtd">
<svg t="1712500000000" class="icon" viewBox="0 0 1024 1024" version="1.1" xmlns="http://www.w3.org/2000/svg" p-id="5000" width="200" height="200" xmlns:xlink="http://www.w3.org/1999/xlink">
  <defs><style type="text/css"></style></defs>
  <path d="M314.88 262.826667h394.24c83.626667 0 154.026667 61.44 164.906667 144.213333l36.053333 274.773333a106.666667 106.666667 0 0 1-105.813333 120.533334 106.453333 106.453333 0 0 1-90.026667-49.28l-56.533333-89.173334a53.333333 53.333333 0 0 0-45.056-24.746666H411.306667a53.333333 53.333333 0 0 0-45.056 24.746666l-56.533334 89.173334A106.453333 106.453333 0 0 1 219.733333 802.346667a106.666667 106.666667 0 0 1-105.813333-120.533334l36.053333-274.773333C160.853333 324.266667 231.253333 262.826667 314.88 262.826667z m0 64a102.826667 102.826667 0 0 0-101.44 88.533333l-36.053333 274.773333a42.666667 42.666667 0 0 0 42.346666 48.213334 42.24 42.24 0 0 0 36.053334-19.84l56.533333-89.173334A117.333333 117.333333 0 0 1 411.306667 575.146667h201.386666c39.893333 0 77.226667 20.48 98.986667 54.186666l56.533333 89.173334a42.24 42.24 0 0 0 36.053334 19.84 42.666667 42.666667 0 0 0 42.346666-48.213334l-36.053333-274.773333A102.826667 102.826667 0 0 0 709.12 326.826667H314.88z" p-id="5001"></path>
  <path d="M332.8 430.506667c17.706667 0 32 14.293333 32 32v49.493333h49.493333c17.706667 0 32 14.293333 32 32s-14.293333 32-32 32H364.8v49.493333c0 17.706667-14.293333 32-32 32s-32-14.293333-32-32V576H251.306667c-17.706667 0-32-14.293333-32-32s14.293333-32 32-32H300.8V462.506667c0-17.706667 14.293333-32 32-32zM677.333333 481.066667a38.4 38.4 0 1 1 0 76.8 38.4 38.4 0 0 1 0-76.8zM770.133333 388.266667a38.4 38.4 0 1 1 0 76.8 38.4 38.4 0 0 1 0-76.8zM770.133333 573.866667a38.4 38.4 0 1 1 0 76.8 38.4 38.4 0 0 1 0-76.8zM862.933333 481.066667a38.4 38.4 0 1 1 0 76.8 38.4 38.4 0 0 1 0-76.8z" p-id="5002"></path>
</svg>
